<svg width="50" height="50" viewBox="0 0 50 50" fill="none" xmlns="http://www.w3.org/2000/svg">
<path d="M18.7503 45.8332H31.2503C41.667 45.8332 45.8337 41.6665 45.8337 31.2498V18.7498C45.8337 8.33317 41.667 4.1665 31.2503 4.1665H18.7503C8.33366 4.1665 4.16699 8.33317 4.16699 18.7498V31.2498C4.16699 41.6665 8.33366 45.8332 18.7503 45.8332Z" fill="#003049" fill-opacity="0.2"/>
<path d="M26.8963 16.3332L16.0838 27.1457C15.6671 27.5623 15.2713 28.3748 15.188 28.9582L14.6046 33.0832C14.3963 34.5832 15.438 35.6248 16.938 35.4165L21.0629 34.8332C21.6463 34.7498 22.4588 34.354 22.8755 33.9373L33.688 23.1248C35.5422 21.2707 36.438 19.104 33.688 16.354C30.938 13.5832 28.7713 14.4582 26.8963 16.3332Z" stroke="#003049" stroke-width="1.5" stroke-miterlimit="10" stroke-linecap="round" stroke-linejoin="round"/>
<path d="M25.3545 17.875C26.2712 21.1458 28.8337 23.7292 32.1253 24.6458" stroke="#003049" stroke-width="1.5" stroke-miterlimit="10" stroke-linecap="round" stroke-linejoin="round"/>
</svg>
