<svg width="16" height="16" viewBox="0 0 16 16" fill="none" xmlns="http://www.w3.org/2000/svg">
<path d="M7.11621 1.53043C7.60435 1.04237 8.39565 1.04237 8.88379 1.53043L13.8838 6.53043C14.1181 6.7648 14.25 7.08278 14.25 7.41422V14.0002C14.2499 14.6904 13.6903 15.2502 13 15.2502H3C2.30969 15.2502 1.75008 14.6904 1.75 14.0002V7.41422C1.75004 7.08278 1.88187 6.7648 2.11621 6.53043L7.11621 1.53043ZM8.53027 1.88394C8.2374 1.59115 7.7626 1.59115 7.46973 1.88394L2.46973 6.88394C2.32916 7.02455 2.25004 7.21539 2.25 7.41422V14.0002C2.25008 14.4143 2.58584 14.7502 3 14.7502H5.75V10.0002C5.75 9.3098 6.30964 8.75015 7 8.75015H9C9.69036 8.75015 10.25 9.3098 10.25 10.0002V14.7502H13C13.4142 14.7502 13.7499 14.4143 13.75 14.0002V7.41422C13.75 7.21539 13.6708 7.02455 13.5303 6.88394L8.53027 1.88394ZM7 9.25015C6.58579 9.25015 6.25 9.58594 6.25 10.0002V14.7502H9.75V10.0002C9.75 9.58594 9.41421 9.25015 9 9.25015H7Z" fill="#787486"/>
<path d="M7.44504 1.23899C7.68076 1.11818 8.03986 1.08222 8.29388 1.15044C8.3733 1.17083 8.33246 1.16306 8.38646 1.17947C8.49141 1.21351 8.58636 1.25554 8.67861 1.31374C8.70899 1.33331 8.66878 1.3128 8.70047 1.33346C8.77699 1.38416 8.84651 1.44125 8.90969 1.50452C8.98669 1.58171 9.06385 1.65871 9.14352 1.73908C9.8488 2.45058 10.544 3.14802 11.2597 3.86643C11.4957 4.1033 11.7804 4.39341 12.0258 4.63644C12.0544 4.6648 12.0401 4.6452 12.0457 4.65041C12.1341 4.7322 12.1005 4.70917 12.1554 4.76541C12.3731 4.98863 12.618 5.23402 12.8311 5.44518C12.9218 5.53501 12.8365 5.43933 12.9245 5.53312C12.9306 5.53963 12.9049 5.51949 12.9294 5.54454C12.9849 5.60134 13.0919 5.70735 13.1351 5.75107C13.2186 5.83536 13.2325 5.8492 13.3117 5.92854C13.4201 6.03703 13.5477 6.16735 13.6646 6.28305C13.6896 6.30773 13.6595 6.27203 13.6996 6.31114C13.7397 6.35029 13.8443 6.45538 13.879 6.4914C13.8915 6.50432 13.8972 6.51095 13.8998 6.51446C13.9044 6.52085 13.8985 6.51703 13.9022 6.52146C13.9524 6.57577 14.0626 6.71056 14.0728 6.73112C14.2118 6.94626 14.2728 7.18215 14.2721 7.41421C14.2714 7.5516 14.2707 7.68883 14.2707 7.83066C14.2707 8.1174 14.2723 8.42399 14.2721 8.69682C14.2718 9.02187 14.2697 9.29735 14.27 9.61312C14.2701 9.64645 14.2748 9.6074 14.2748 9.6481C14.2754 10.0805 14.2749 10.51 14.2717 10.9405C14.2714 10.9837 14.2672 10.9281 14.2667 10.9712C14.2633 11.2353 14.2551 11.6533 14.2731 11.8101C14.2724 11.9891 14.2717 12.2063 14.268 12.3663C14.2657 12.4695 14.2612 12.3693 14.2631 12.4961C14.2635 12.5247 14.2675 12.4875 14.2678 12.5304C14.2693 12.7109 14.268 12.9081 14.27 13.0867C14.2705 13.123 14.274 13.1131 14.2747 13.1234C14.2798 13.2099 14.2713 13.3539 14.2707 13.3853C14.2662 13.6166 14.2677 13.7876 14.2677 14.0002C14.2677 14.0074 14.2677 14.0147 14.2676 14.022C14.2661 14.0744 14.2729 14.0126 14.2711 14.063C14.2606 14.3258 14.1577 14.5921 13.9949 14.7908C13.9585 14.8348 13.9886 14.7916 13.9709 14.8123C13.8909 14.9012 13.8765 14.9253 13.7863 14.9973C13.767 15.0121 13.7756 15.0009 13.7719 15.0033C13.7137 15.0408 13.6672 15.079 13.6519 15.0884C13.4574 15.203 13.3113 15.2383 13.0965 15.2599C13.0705 15.2618 13.1295 15.2627 13.0563 15.267C13.0377 15.2679 13.0189 15.2683 13 15.2684C12.5354 15.2694 12.0473 15.2681 11.5894 15.2648C11.5154 15.2642 11.5682 15.2609 11.5636 15.2605C11.4876 15.2542 11.4385 15.2627 11.4144 15.263C11.2239 15.2653 11.046 15.2582 10.9166 15.2683C10.11 15.2648 9.30705 15.2705 8.50711 15.2614C8.49694 15.2613 8.51516 15.2571 8.49488 15.2569C8.25054 15.2546 8.29747 15.2611 8.1358 15.269C8.09507 15.271 7.97119 15.2614 7.96022 15.2607C7.92029 15.2581 7.96171 15.2519 7.94834 15.2514C7.83767 15.2474 7.85571 15.268 7.70642 15.268C7.70175 15.268 7.72136 15.2642 7.70884 15.2638C7.66991 15.2627 7.63131 15.2642 7.59322 15.2629C7.50604 15.2598 7.47499 15.2498 7.34183 15.2557C7.32498 15.2564 7.35072 15.2681 7.21743 15.2675C7.1643 15.2673 6.9291 15.2675 6.86318 15.2668C6.79734 15.266 6.84255 15.2622 6.83785 15.2621C6.66046 15.2571 6.72772 15.255 6.63885 15.2476C6.54998 15.2403 6.57462 15.2578 6.53839 15.2598C6.5021 15.2617 6.37204 15.2576 6.34007 15.2562C6.30813 15.2548 6.34797 15.2524 6.31957 15.2516C6.13122 15.2463 6.2369 15.2603 6.17484 15.263C6.02852 15.2696 5.91456 15.2566 5.78061 15.2554C5.74437 15.255 5.77394 15.258 5.74167 15.2583C5.61385 15.2593 5.53698 15.2553 5.39156 15.259C5.36777 15.2596 5.25021 15.2674 5.17411 15.2617C5.16333 15.2608 5.19396 15.2576 5.13948 15.2569C5.0581 15.2558 4.91147 15.2551 4.82399 15.2562C4.75941 15.257 4.83344 15.2623 4.75214 15.2606C4.71602 15.2599 4.78298 15.2568 4.7151 15.2556C4.64758 15.2545 4.47496 15.2546 4.40927 15.2548C4.3437 15.2549 4.37959 15.2589 4.37429 15.2592C4.34222 15.2607 4.21638 15.2627 4.20526 15.2627C3.78936 15.2631 3.39746 15.2594 3 15.2584C2.86032 15.2581 2.72044 15.2352 2.58587 15.1889C2.54524 15.1745 2.57079 15.1882 2.56458 15.186C2.42643 15.1324 2.53815 15.1671 2.44657 15.1208C2.45645 15.1346 2.40069 15.1094 2.31288 15.0536C2.27095 15.0262 2.29178 15.0441 2.28777 15.0419C2.22324 15.0037 2.18804 14.964 2.17884 14.9545C2.14474 14.9188 2.10267 14.8853 2.08224 14.8584C2.06222 14.8315 2.11679 14.8853 2.05098 14.8113C2.03058 14.792 2.07216 14.8539 2.02241 14.7966C1.86818 14.6319 1.72598 14.2661 1.73997 14.0002C1.74048 13.927 1.7409 13.8625 1.74104 13.8125C1.7417 13.5847 1.74113 13.5111 1.74225 13.3783C1.74428 13.1385 1.73826 13.2264 1.73551 13.0775C1.73276 12.9281 1.74755 13.0007 1.75073 12.9793C1.75391 12.9582 1.75064 12.9352 1.75239 12.909C1.75414 12.8828 1.7563 12.9394 1.75695 12.8779C1.75761 12.8165 1.75195 12.6483 1.74863 12.6266C1.74158 12.5805 1.73419 12.6562 1.73679 12.4935C1.73694 12.4842 1.74083 12.5145 1.74122 12.4787C1.74422 12.1941 1.74441 11.8985 1.74705 11.6143C1.74742 11.5752 1.75175 11.6101 1.75202 11.5874C1.75478 11.3505 1.74749 11.4352 1.73938 11.3053C1.75017 11.3345 1.75677 11.2627 1.75683 11.0829C1.75687 10.9748 1.75216 10.9934 1.74884 10.9235C1.74784 10.9026 1.75108 10.8261 1.74886 10.8122C1.74162 10.7665 1.73351 10.8386 1.73674 10.6532C1.73689 10.6451 1.74086 10.6709 1.7411 10.6428C1.74267 10.4612 1.73509 10.4395 1.73418 10.2431C1.73346 10.0892 1.73807 9.81547 1.73883 9.64023C1.75095 9.64391 1.74818 9.47838 1.73982 9.41124C1.74016 9.29751 1.73968 9.17466 1.74084 9.06474C1.74123 9.02691 1.74475 9.05176 1.74513 9.04699C1.75108 8.97384 1.74294 8.92439 1.74262 8.89985C1.73952 8.63378 1.74569 8.41701 1.73966 8.16309C1.73945 8.15408 1.73102 8.13947 1.73717 8.07159C1.7376 8.0672 1.74143 8.15107 1.74173 8.03162C1.74202 7.91215 1.74654 7.68694 1.74263 7.52109C1.74212 7.49926 1.73987 7.45927 1.73878 7.41422C1.73782 7.37611 1.7397 7.33428 1.74566 7.29721C1.74743 7.2864 1.74865 7.29852 1.75158 7.28299C1.76151 7.2331 1.75712 7.20407 1.77657 7.14704C1.79671 7.09048 1.83052 6.97152 1.90518 6.82244C1.90759 6.81779 1.9202 6.77948 1.94894 6.73522C1.9898 6.6711 2.05613 6.58941 2.11626 6.53048C2.12261 6.52417 2.12877 6.51801 2.13473 6.51205C2.1644 6.48235 2.14243 6.49838 2.14753 6.49318C2.34546 6.29193 2.49015 6.15252 2.70511 5.93986C2.74452 5.90088 2.85312 5.7842 2.93219 5.71151C3.01901 5.63169 2.94793 5.73186 3.13598 5.53688C3.21184 5.45825 3.29117 5.34201 3.43955 5.21275C3.70639 4.94117 3.96026 4.69709 4.22684 4.42374C4.23883 4.41145 4.27207 4.36791 4.30068 4.33944C4.34317 4.29718 4.36883 4.27633 4.39925 4.24624C4.52675 4.12018 4.6407 4.00211 4.76325 3.8802C4.80978 3.83391 4.79604 3.85263 4.85153 3.79742C4.90698 3.74224 4.94058 3.70208 5.01713 3.6287C5.07494 3.5733 5.13825 3.52339 5.21417 3.44903C5.21043 3.43956 5.26217 3.38809 5.35216 3.29461C5.36945 3.27664 5.34824 3.29325 5.35631 3.28463C5.38906 3.2495 5.42238 3.21999 5.45333 3.18647C5.46086 3.17832 5.45897 3.17569 5.465 3.1689C5.51618 3.11107 5.61105 3.02635 5.62736 3.01181C5.68983 2.95606 5.71452 2.9255 5.76117 2.88149C5.80776 2.83754 5.74173 2.90688 5.79541 2.8548C5.90667 2.74686 6.04712 2.60568 6.15854 2.49447C6.20298 2.45009 6.16966 2.47737 6.17596 2.47095C6.26703 2.37835 6.3631 2.28868 6.40802 2.23176C6.48722 2.1836 6.4619 2.17488 6.59628 2.04671C6.60687 2.03662 6.62736 2.0308 6.58874 2.07158C6.55012 2.11235 6.48763 2.17026 6.43423 2.22702C6.42158 2.24046 6.35374 2.32205 6.34396 2.33266C6.26736 2.41577 6.24508 2.41612 6.24025 2.41974C6.18584 2.46115 6.10194 2.55987 6.07841 2.58442C5.97076 2.69677 5.87576 2.78868 5.78543 2.88235C5.72635 2.9436 5.72764 2.95668 5.68017 3.0037C5.52238 3.16004 5.45753 3.20485 5.31821 3.36155C5.28833 3.39514 5.32772 3.37145 5.20783 3.47899C5.20029 3.48575 5.11021 3.56453 5.06501 3.61688C5.05933 3.62346 5.06181 3.62556 5.05393 3.63383C5.00102 3.68922 4.96309 3.72351 4.90497 3.78337C4.84686 3.84322 4.77724 3.91545 4.70912 3.98202C4.66807 4.02214 4.61173 4.06995 4.59126 4.08834C4.53339 4.14019 4.4795 4.20394 4.44188 4.23428C4.40395 4.2649 4.46539 4.19234 4.37316 4.27984C4.37577 4.28912 4.37423 4.30286 4.37485 4.31419C4.17769 4.51093 3.98199 4.7028 3.78464 4.90067C3.76018 4.92521 3.78843 4.90335 3.76229 4.92973C3.65199 5.04105 3.55293 5.13555 3.43893 5.25137C3.3507 5.34103 3.25655 5.44195 3.16439 5.53581C3.10078 5.58582 2.96507 5.72614 2.86419 5.82578C2.82885 5.86069 2.82938 5.85652 2.80382 5.88091C2.7074 5.97294 2.75756 5.9348 2.73268 5.96157C2.62588 6.07644 2.60279 6.07232 2.47246 6.20332C2.46556 6.21026 2.38819 6.30213 2.37699 6.31424C2.30588 6.39123 2.3622 6.32397 2.31532 6.36978C2.24939 6.4342 2.19833 6.48286 2.13395 6.54816C2.11513 6.56727 2.09577 6.58839 2.0756 6.6127C2.04944 6.64331 1.99558 6.7226 1.95221 6.78703C1.94642 6.79548 1.94639 6.78889 1.94204 6.7959C1.8668 6.92526 1.87928 6.93595 1.85267 7.01596C1.82645 7.09639 1.79512 7.22346 1.79067 7.25007C1.77623 7.31883 1.79542 7.1965 1.7969 7.19291C1.79925 7.1478 1.78028 7.24249 1.77477 7.3161C1.76239 7.32578 1.76028 7.42985 1.77051 7.39239C1.77129 7.38817 1.77272 7.33079 1.77477 7.3161C1.77678 7.34213 1.77758 7.37556 1.7787 7.41422C1.7804 7.4739 1.77857 7.54606 1.77282 7.62258C1.76833 7.68214 1.7631 7.62583 1.76501 7.80677C1.76587 7.88888 1.77307 7.85715 1.77503 7.92962C1.7795 8.09517 1.77279 8.3103 1.77385 8.48098C1.77423 8.54293 1.77817 8.48258 1.77857 8.52492C1.77963 8.63727 1.77668 8.73636 1.77819 8.84919C1.77834 8.85941 1.78246 8.83443 1.78251 8.86952C1.78299 9.13553 1.78035 9.36715 1.78028 9.64488C1.78024 9.77907 1.78251 10.019 1.78206 10.158C1.78129 10.3989 1.7753 10.6953 1.77675 10.9011C1.77769 11.0354 1.78181 11.0059 1.78461 11.0634C1.79006 11.1744 1.78031 11.3709 1.7788 11.3974C1.77875 11.3982 1.77778 11.2827 1.77566 11.3443C1.77125 11.3801 1.77878 11.3961 1.7788 11.3974C1.77782 11.4147 1.77689 11.6455 1.77767 11.6913C1.77811 11.7162 1.78201 11.7023 1.78216 11.7153C1.78566 12.0238 1.78665 12.3329 1.78482 12.6459C1.78474 12.6514 1.78038 12.6431 1.78024 12.656C1.7783 12.8372 1.78365 12.9532 1.78682 13.1026C1.78999 13.252 1.78893 13.3705 1.78143 13.4589C1.78237 13.5717 1.77906 13.7334 1.77705 13.8265C1.77503 13.9195 1.78354 13.9325 1.78371 13.9407C1.78414 13.9612 1.7845 13.9809 1.78481 14.0002C1.7931 14.2135 1.81872 14.357 1.92461 14.5693C1.97692 14.681 2.13347 14.8713 2.24173 14.9492C2.32457 15.0132 2.37771 15.0483 2.46445 15.0907C2.47627 15.0963 2.46607 15.0871 2.46971 15.0887C2.56891 15.1297 2.51871 15.1159 2.53836 15.1265C2.61121 15.1612 2.65806 15.1841 2.79529 15.2065C2.82713 15.212 2.92101 15.2093 2.97843 15.2086C2.98679 15.2086 2.99389 15.2086 3 15.2086C3.05025 15.2088 3.03513 15.2124 3.10736 15.2114C3.11431 15.2113 3.11286 15.2084 3.16301 15.2085C3.3958 15.2091 3.64959 15.2108 3.8915 15.2105C3.92454 15.2105 3.88218 15.2058 3.92992 15.2057C4.15395 15.2051 4.3995 15.2053 4.61775 15.2075C4.67147 15.208 4.63779 15.2113 4.64945 15.2123C4.72105 15.2181 4.82258 15.2096 4.83933 15.2094C5.23893 15.2053 5.54476 15.2131 5.95205 15.2094C5.97422 15.2092 6.14488 15.2 6.22101 15.2079C6.22623 15.2084 6.30155 15.2164 6.36816 15.2109C6.3723 15.2106 6.32536 15.2064 6.40727 15.2069C6.48919 15.2073 6.62101 15.2045 6.73361 15.2091C6.76926 15.2105 6.85351 15.2185 6.95984 15.2121C6.96677 15.2117 7.13093 15.1972 7.18952 15.2072C7.19902 15.2088 7.18907 15.2194 7.31599 15.214C7.34024 15.2129 7.29622 15.2106 7.3601 15.2091C7.45797 15.2069 7.58766 15.2097 7.70798 15.205C7.72896 15.2041 7.81828 15.197 7.88993 15.2024C7.90115 15.2033 7.87983 15.2068 7.91767 15.2072C8.0976 15.2091 8.286 15.2067 8.46869 15.2092C8.53339 15.21 8.50031 15.2157 8.56776 15.2172C8.63523 15.2188 8.77113 15.2202 8.84172 15.2176C8.91232 15.215 8.8352 15.2059 8.94096 15.2052C9.40078 15.2021 9.85627 15.2074 10.3154 15.2082C10.3835 15.2083 10.3271 15.205 10.4274 15.205C10.7974 15.2047 11.4362 15.2017 11.7572 15.2086C12.0145 15.2141 11.6908 15.2183 11.8873 15.2206C11.9822 15.2216 12.0848 15.2111 12.1077 15.2108C12.3314 15.2074 12.4868 15.2121 12.6882 15.2106C12.7298 15.2103 12.689 15.2061 12.7244 15.2059C12.8153 15.2053 12.9097 15.2062 13 15.2066C13.029 15.2067 13.057 15.2057 13.0847 15.2037C13.1345 15.1996 13.1251 15.1972 13.1706 15.1915C13.2793 15.1763 13.374 15.151 13.4741 15.1119C13.4832 15.1083 13.4239 15.1382 13.4991 15.1058C13.6202 15.0525 13.7614 14.9619 13.8656 14.8498C13.896 14.8162 13.8934 14.8116 13.9578 14.7391C13.9703 14.7232 13.9649 14.7512 14.0215 14.6526C14.0335 14.637 14.1152 14.4661 14.1465 14.3786C14.156 14.356 14.1811 14.2977 14.1905 14.2437C14.1917 14.2364 14.1822 14.2646 14.1904 14.2204C14.2029 14.149 14.2096 14.0749 14.2093 14.0001C14.2091 13.9087 14.2089 13.8164 14.2082 13.7251C14.2079 13.6802 14.2038 13.7471 14.2034 13.6801C14.2023 13.496 14.2034 13.2661 14.2047 13.086C14.2052 13.0196 14.2086 13.0655 14.209 13.0607C14.2151 12.983 14.2068 12.9371 14.2064 12.9113C14.2035 12.751 14.2074 12.6289 14.2063 12.4811C14.2061 12.4403 14.2022 12.4692 14.2018 12.4611C14.1984 12.3769 14.2054 12.4396 14.2062 12.3863C14.2084 12.237 14.2081 12.0705 14.2076 11.9195C14.2074 11.8641 14.2029 11.9264 14.2027 11.8766C14.202 11.582 14.2024 11.2758 14.2049 10.9883C14.2054 10.9341 14.2089 10.9682 14.2097 10.9569C14.2152 10.8791 14.2076 10.7652 14.2069 10.7389C14.2036 10.6197 14.2067 10.5734 14.2061 10.4681C14.2032 9.95367 14.2053 9.31851 14.2065 8.83294C14.2079 8.31114 14.2104 7.88574 14.2107 7.41422C14.2108 7.3171 14.1991 7.21788 14.1739 7.11854C14.1645 7.08262 14.1696 7.11995 14.1611 7.0892C14.1048 6.88996 13.9977 6.70715 13.8524 6.56183C13.7035 6.41274 13.5545 6.26358 13.4037 6.11368C13.3788 6.08893 13.4114 6.12782 13.3714 6.08821C13.2892 6.00698 13.1859 5.90332 13.1043 5.81972C13.0645 5.77896 13.1212 5.83032 13.081 5.78934C12.9876 5.69391 12.8866 5.59246 12.7891 5.49596C12.7476 5.45491 12.8067 5.52037 12.753 5.46676C12.3872 5.10161 12.0278 4.74323 11.6626 4.36978C11.6375 4.34418 11.6218 4.31548 11.5667 4.26289C11.5609 4.26063 11.559 4.26297 11.5553 4.26312C11.0222 3.73213 10.4979 3.20329 9.96469 2.66942C9.94221 2.64691 9.97766 2.68922 9.93412 2.64566C9.68211 2.39355 9.43639 2.14973 9.18198 1.8885C9.15673 1.86258 9.17589 1.86967 9.09959 1.79519C9.08613 1.78206 8.97179 1.66933 8.94112 1.64128C8.93693 1.63749 8.95483 1.66103 8.91816 1.62452C8.8968 1.60325 8.87535 1.58186 8.85383 1.56038C8.66791 1.37258 8.41108 1.24657 8.15125 1.2133C8.10466 1.20751 8.15485 1.20887 8.12156 1.20496C7.88415 1.17685 7.62133 1.23531 7.42037 1.34238C7.28715 1.4168 7.33248 1.38297 7.261 1.42406C7.25051 1.42941 7.17659 1.49042 7.17054 1.49141C7.15373 1.4922 7.18156 1.45208 7.15952 1.45651C7.1538 1.45641 7.06062 1.55098 7.11282 1.49176C7.11594 1.48707 7.18648 1.42142 7.2047 1.40581C7.21695 1.39447 7.19061 1.40954 7.21642 1.38731C7.2424 1.36537 7.27466 1.34615 7.32153 1.31459C7.36904 1.28434 7.34378 1.28991 7.44504 1.23899ZM1.79151 14.2405C1.8056 14.3246 1.8233 14.3327 1.79976 14.2445C1.7987 14.2403 1.79087 14.2362 1.79151 14.2405ZM3.97512 4.69372C3.89079 4.76871 3.84314 4.83008 3.90294 4.77749C3.96273 4.72489 4.0008 4.67086 3.97512 4.69372ZM4.79776 3.86427C4.70098 3.95369 4.70132 3.98334 4.798 3.88059C4.80363 3.87462 4.80341 3.85904 4.79776 3.86427ZM7.59592 1.24435C7.59459 1.2441 7.52994 1.26828 7.52866 1.26953C7.49627 1.28694 7.6248 1.2384 7.59592 1.24435ZM5.61376 3.04085C5.58267 3.06788 5.50132 3.15391 5.53996 3.12032C5.57106 3.09328 5.65248 3.00718 5.61376 3.04085ZM5.77699 15.2481C5.77835 15.2483 5.82831 15.2485 5.82731 15.2472C5.82391 15.2432 5.75439 15.2443 5.77699 15.2481ZM7.00677 1.64749C6.80037 1.85276 6.66318 1.96517 6.88874 1.74242C6.92958 1.70208 6.8052 1.83385 6.85798 1.7833C6.95455 1.6908 7.00955 1.62025 7.11019 1.52795C7.12842 1.51125 7.01857 1.63581 7.00643 1.64787C7.00654 1.64774 7.00666 1.64762 7.00677 1.64749ZM1.7845 14.2925C1.78424 14.2943 1.80217 14.3612 1.80327 14.3625C1.8177 14.3971 1.78135 14.2632 1.7845 14.2925ZM8.69216 15.2573C8.69598 15.2577 8.85647 15.2581 8.86171 15.2577C8.94543 15.25 8.62095 15.2491 8.69216 15.2573ZM1.73915 9.63747C1.73437 9.56201 1.73381 9.47174 1.73981 9.41158C1.73949 9.48657 1.73944 9.56207 1.73915 9.63747ZM8.07889 1.71827C7.89209 1.69409 7.65482 1.76395 7.50444 1.91867C7.42769 1.9948 7.35331 2.06839 7.2857 2.13513C7.21977 2.20022 7.25107 2.16517 7.20548 2.21002C7.1163 2.29774 7.03482 2.38105 6.94655 2.46759C6.91729 2.49626 6.95037 2.45723 6.91976 2.48736C6.75201 2.65249 6.59531 2.8107 6.42607 2.97868C5.59247 3.80605 4.775 4.62129 3.933 5.46059C3.65537 5.73733 3.31572 6.07159 3.0306 6.35907C2.99731 6.39263 3.01985 6.37531 3.0137 6.38189C2.91726 6.48491 2.94516 6.44649 2.87934 6.51091C2.75183 6.63573 2.61802 6.76804 2.48563 6.89984C2.34971 7.03367 2.27567 7.22173 2.27327 7.39613C2.27314 7.40274 2.27312 7.40875 2.27317 7.41422C2.2743 7.53215 2.28079 7.40203 2.27687 7.54584C2.27659 7.55631 2.27268 7.51834 2.27226 7.55938C2.27133 7.65245 2.27202 7.82903 2.27171 7.90116C2.2711 8.04018 2.27114 8.06318 2.27109 8.19467C2.271 8.37442 2.26905 8.58822 2.26994 8.78108C2.27014 8.82225 2.27415 8.76775 2.27483 8.8334C2.27551 8.89911 2.27517 9.07295 2.27423 9.13155C2.27328 9.19017 2.27013 9.16521 2.26941 9.17559C2.26331 9.26093 2.27176 9.46202 2.27196 9.48788C2.27552 9.95961 2.27071 10.3641 2.27073 10.8069C2.27075 11.1431 2.27234 11.5026 2.27212 11.8224C2.27184 12.2035 2.26967 12.5264 2.27004 12.8967C2.27008 12.9357 2.27479 12.8899 2.27485 12.9377C2.27523 13.293 2.27509 13.6466 2.27388 14.0002C2.27303 14.1464 2.31752 14.2924 2.40037 14.4135C2.42875 14.4538 2.38803 14.4048 2.4169 14.4448C2.52676 14.6061 2.7814 14.7482 3 14.7378C3.1225 14.7366 3.22806 14.7335 3.29412 14.727C3.50388 14.7277 3.75853 14.7285 3.94618 14.7321C4.06717 14.7344 3.94966 14.739 4.09829 14.737C4.13181 14.7366 4.08822 14.7327 4.13849 14.7323C4.35014 14.7309 4.58137 14.7321 4.79075 14.7301C4.83334 14.7297 4.82171 14.7261 4.83377 14.7255C4.93519 14.7203 5.10401 14.7289 5.14082 14.7295C5.37042 14.7333 5.54928 14.7327 5.75 14.7325L5.73234 14.7502C5.73228 14.7059 5.73224 14.6605 5.73226 14.6133C5.73229 14.5528 5.72753 14.6244 5.72739 14.5661C5.72671 14.2637 5.72712 13.9505 5.72923 13.6544C5.72971 13.5886 5.73376 13.6492 5.73419 13.6177C5.73607 13.4789 5.72842 13.4482 5.73007 13.3151C5.73041 13.287 5.73388 13.3028 5.73426 13.2977C5.74024 13.2176 5.73177 13.148 5.73158 13.1274C5.72903 12.8668 5.73787 12.7003 5.73662 12.4485C5.73646 12.4184 5.73207 12.4863 5.73189 12.4016C5.73068 11.8376 5.73189 11.2411 5.7354 10.6828C5.73594 10.596 5.73923 10.658 5.73964 10.6525C5.74599 10.5635 5.73748 10.5059 5.73716 10.4776C5.73535 10.3027 5.73934 10.1368 5.73628 10.0002C5.73544 9.96176 5.73575 9.92598 5.73636 9.89252C5.77964 9.25561 6.36546 8.71915 7 8.73381C7.32289 8.73442 7.64533 8.7358 7.96737 8.73891C7.97929 8.73902 7.95793 8.74321 7.98171 8.7434C8.26816 8.74575 8.21315 8.73924 8.40268 8.73128C8.45043 8.72928 8.59567 8.73889 8.60852 8.7396C8.65534 8.74219 8.60678 8.74842 8.62246 8.74893C8.75219 8.75288 8.73105 8.73227 8.90607 8.73226C8.91154 8.73229 8.88855 8.73609 8.90324 8.73646C8.93571 8.73731 8.96799 8.73679 9 8.73689C9.01319 8.73693 9.02628 8.73727 9.03926 8.73805C9.14221 8.7468 9.17792 8.75651 9.33112 8.78878C9.35002 8.7949 9.32589 8.76847 9.47432 8.82451C9.53639 8.84099 9.77753 8.98533 9.83109 9.04432C9.88882 9.09706 9.84628 9.06398 9.85039 9.06779C9.99607 9.21866 9.93675 9.16559 9.99717 9.25043C10.0521 9.33877 10.0487 9.30622 10.0737 9.34115C10.1001 9.37546 10.1641 9.51577 10.1738 9.55226C10.1857 9.58804 10.1671 9.54489 10.1779 9.57649C10.2387 9.78881 10.2144 9.66701 10.2355 9.7374C10.259 9.83127 10.264 9.9169 10.2611 10.0002C10.2586 10.0659 10.2558 10.1308 10.2552 10.2004C10.2549 10.2429 10.2578 10.2082 10.2581 10.2461C10.2592 10.3959 10.2551 10.486 10.2588 10.6565C10.2594 10.6844 10.2672 10.8222 10.2615 10.9115C10.2607 10.9241 10.2574 10.8882 10.2567 10.9521C10.2556 11.0475 10.2549 11.2194 10.256 11.3219C10.2568 11.3976 10.2621 11.3109 10.2605 11.4062C10.2597 11.4485 10.2566 11.37 10.2555 11.4496C10.2544 11.5287 10.2545 11.7311 10.2546 11.8081C10.2547 11.885 10.2588 11.8429 10.259 11.8491C10.2606 11.8867 10.2625 12.0343 10.2625 12.0473C10.263 12.7049 10.2562 13.3113 10.2585 13.9516C10.2586 14.0018 10.2629 13.9684 10.263 13.976C10.2648 14.148 10.2534 14.0124 10.2496 14.1326C10.2583 14.1152 10.2567 14.1861 10.2577 14.3073C10.2581 14.3657 10.2615 14.3339 10.2618 14.3392C10.2669 14.4258 10.2603 14.4861 10.259 14.5016C10.254 14.559 10.2599 14.6214 10.2566 14.6604C10.2533 14.6994 10.2484 14.6096 10.2485 14.7258C10.2515 14.7571 10.259 14.6792 10.2608 14.7502L10.25 14.7393C10.2531 14.7393 10.2565 14.7392 10.2602 14.7391C10.5931 14.7342 11.2145 14.7405 11.4821 14.7412C11.7493 14.7419 11.8355 14.7413 11.9912 14.7424C12.2723 14.7444 12.1693 14.7384 12.3439 14.7357C12.519 14.7329 12.4338 14.7477 12.459 14.7509C12.4837 14.7541 12.5107 14.7508 12.5414 14.7525C12.5721 14.7543 12.5057 14.7565 12.5778 14.7571C12.6499 14.7578 12.847 14.7521 12.8725 14.7488C12.9236 14.7421 12.8469 14.7351 13 14.7366C13.0086 14.7367 13.0179 14.7367 13.028 14.7364C13.0388 14.7361 13.0039 14.7416 13.0453 14.74C13.3793 14.7303 13.6897 14.45 13.7378 14.1181C13.7446 14.073 13.7433 14.114 13.747 14.0875C13.7513 14.0532 13.7525 14.0244 13.7526 14.0002C13.753 13.8305 13.7465 13.8901 13.7394 13.7568C13.7502 13.791 13.7568 13.7068 13.7568 13.496C13.7569 13.3693 13.7522 13.3911 13.7488 13.3092C13.7478 13.2846 13.7511 13.1949 13.7489 13.1787C13.7416 13.1251 13.7335 13.2095 13.7367 12.9922C13.7369 12.9827 13.7409 13.013 13.7411 12.9801C13.7427 12.7671 13.7351 12.7417 13.7342 12.5115C13.7335 12.331 13.7381 12.0101 13.7388 11.8046C13.751 11.809 13.7482 11.6149 13.7398 11.5362C13.7402 11.4029 13.7397 11.2588 13.7408 11.13C13.7412 11.0856 13.7447 11.1148 13.7451 11.1092C13.7511 11.0234 13.7429 10.9654 13.7426 10.9367C13.7395 10.6247 13.7457 10.3706 13.7397 10.0729C13.7394 10.0623 13.731 10.0452 13.7372 9.96563C13.7376 9.96048 13.7414 10.0588 13.7417 9.91877C13.742 9.77871 13.7465 9.51468 13.7426 9.32024C13.7417 9.27319 13.7349 9.15417 13.7402 9.05865C13.7409 9.04592 13.7433 9.05985 13.7447 9.04148C13.749 8.98209 13.7405 8.94967 13.7477 8.87988C13.7549 8.81008 13.7603 8.6649 13.7553 8.4688C13.7552 8.46256 13.7485 8.41614 13.7486 8.35447C13.7487 8.25603 13.7501 8.11628 13.7501 8.01349C13.7501 7.96428 13.7459 7.99578 13.7458 7.98723C13.7443 7.77594 13.7453 7.60353 13.7466 7.41422C13.7472 7.30775 13.7262 7.19418 13.6696 7.0792C13.6509 7.03983 13.5979 6.9551 13.5276 6.88662C13.4937 6.85296 13.4603 6.81902 13.4323 6.78891C13.3381 6.68773 13.4531 6.77356 13.2251 6.55251C13.1331 6.46334 13 6.36715 12.8468 6.19484C12.5288 5.88159 12.2419 5.58481 11.922 5.27169C11.9076 5.25761 11.8574 5.21776 11.824 5.18422C11.7745 5.13443 11.7496 5.10476 11.7143 5.06913C11.5664 4.91978 11.4283 4.78583 11.2854 4.64221C11.2311 4.58769 11.2526 4.60422 11.1878 4.53919C11.1231 4.47421 11.0766 4.43424 10.9903 4.34478C10.9251 4.2772 10.8655 4.20414 10.7782 4.11527C10.7682 4.11852 10.7078 4.05787 10.5985 3.95208C10.5775 3.93175 10.5974 3.95621 10.5873 3.94671C10.5464 3.9081 10.5114 3.86937 10.4724 3.83287C10.4629 3.82399 10.4602 3.82581 10.4523 3.81868C10.385 3.7581 10.2848 3.64775 10.2676 3.62878C10.2017 3.55613 10.1664 3.52668 10.1146 3.4722C10.0628 3.41781 10.1438 3.49551 10.0826 3.43272C9.95579 3.30257 9.79034 3.13784 9.65994 3.00724C9.6079 2.95514 9.64041 2.99368 9.6329 2.98629C9.52446 2.87939 9.41879 2.76731 9.35309 2.71361C9.29396 2.62344 9.28666 2.65019 9.13586 2.49318C9.12399 2.48081 9.11591 2.45805 9.16353 2.50351C9.21114 2.54898 9.27943 2.62184 9.34568 2.68474C9.36136 2.69964 9.45584 2.78036 9.46821 2.79189C9.56508 2.88226 9.56738 2.90649 9.57173 2.91205C9.6214 2.97471 9.73585 3.07435 9.76455 3.10203C9.89586 3.22864 10.0039 3.33974 10.1134 3.44593C10.185 3.51539 10.1991 3.51511 10.2543 3.57072C10.4377 3.75559 10.492 3.82988 10.6742 3.99472C10.7132 4.03007 10.6841 3.98525 10.8113 4.12474C10.8192 4.1335 10.9126 4.23814 10.9733 4.29175C10.981 4.29848 10.983 4.29597 10.9927 4.30525C11.0574 4.36749 11.0979 4.41165 11.168 4.47993C11.238 4.5482 11.3224 4.63005 11.4006 4.70978C11.4477 4.75783 11.5045 4.82314 11.5263 4.84696C11.5876 4.91428 11.6614 4.97831 11.6977 5.0218C11.7342 5.06564 11.6501 4.99264 11.7531 5.10037C11.7629 5.09832 11.778 5.10119 11.7902 5.10148C12.0209 5.33259 12.2462 5.5617 12.4781 5.79311C12.5069 5.82179 12.4807 5.78922 12.5116 5.81989C12.642 5.94929 12.7532 6.06503 12.8888 6.19884C12.9938 6.30241 13.1116 6.41337 13.2215 6.52156C13.2795 6.59283 13.4359 6.74527 13.552 6.86223C13.5556 6.86588 13.5591 6.86952 13.5626 6.87316C13.6036 6.91779 13.5984 6.91698 13.6239 6.95141C13.7112 7.08743 13.6746 7.0213 13.6985 7.05908C13.7734 7.21319 13.7662 7.25266 13.7711 7.41421C13.7707 7.43332 13.7706 7.45429 13.7706 7.47758C13.7706 7.48906 13.7809 7.62935 13.7815 7.64868C13.7857 7.77146 13.778 7.669 13.7772 7.74584C13.7758 7.88614 13.7734 7.98362 13.7764 8.14823C13.7773 8.19622 13.7837 8.31136 13.7787 8.40457C13.7781 8.41683 13.7747 8.41005 13.7745 8.41992C13.7712 8.59857 13.7818 8.60326 13.7854 8.70535C13.789 8.80745 13.7817 8.96515 13.7796 8.99724C13.7741 9.0812 13.7772 8.9329 13.7767 8.92836C13.7703 8.87494 13.7714 8.98996 13.7708 9.07784C13.7604 9.09056 13.761 9.21345 13.7703 9.16894C13.7713 9.16387 13.7704 9.09548 13.7708 9.07784C13.7811 9.15498 13.7824 9.29004 13.7728 9.43922C13.7683 9.50904 13.7631 9.44303 13.765 9.65516C13.7659 9.75142 13.7731 9.71423 13.775 9.79918C13.7795 9.99328 13.7728 10.2455 13.7738 10.4456C13.7742 10.5182 13.7782 10.4475 13.7786 10.4971C13.7796 10.6288 13.7767 10.745 13.7782 10.8773C13.7783 10.8892 13.7825 10.86 13.7825 10.9011C13.783 11.213 13.7803 11.4845 13.7803 11.8101C13.7802 11.9674 13.7825 12.2487 13.7821 12.4117C13.7813 12.6941 13.7753 13.0416 13.7768 13.2829C13.7777 13.4403 13.7818 13.4057 13.7846 13.4732C13.7901 13.6033 13.7803 13.8336 13.7788 13.8647C13.7787 13.8656 13.7778 13.7302 13.7757 13.8024C13.7713 13.8445 13.7788 13.8631 13.7788 13.8647C13.7784 13.8738 13.7779 13.9328 13.7777 14.0002C13.7787 14.087 13.7567 14.1848 13.7478 14.2143C13.7396 14.2434 13.7482 14.2283 13.7435 14.2435C13.6483 14.5572 13.3337 14.7912 13 14.7856C12.95 14.7854 12.9 14.7852 12.8499 14.785C12.8434 14.7849 12.8532 14.7805 12.838 14.7804C12.6256 14.7785 12.4896 14.7838 12.3144 14.787C12.1392 14.7901 12.0003 14.7891 11.8966 14.7816C11.7645 14.7825 11.5749 14.7792 11.4658 14.7772C11.3567 14.7752 11.3414 14.7837 11.3319 14.7839C11.0324 14.7892 10.8593 14.7844 10.5487 14.7836C10.4742 14.7834 10.3627 14.7836 10.25 14.784L10.2161 14.784L10.2161 14.7502C10.2157 14.6394 10.2152 14.5275 10.2148 14.4483C10.214 14.3219 10.216 14.2458 10.2147 14.1293C10.2145 14.1136 10.2108 14.1295 10.2106 14.1247C10.2061 13.9947 10.2153 14.0572 10.217 14.0304C10.223 13.9331 10.2262 13.873 10.2234 13.7065C10.2227 13.6682 10.2094 13.5563 10.2086 13.4864C10.2076 13.3954 10.2124 13.4297 10.2113 13.3345C10.2112 13.3263 10.2082 13.328 10.2083 13.2692C10.2089 12.9963 10.2106 12.6988 10.2103 12.4152C10.2103 12.3764 10.2056 12.4261 10.2055 12.3701C10.205 12.1075 10.2051 11.8196 10.2073 11.5637C10.2079 11.5007 10.2111 11.5402 10.2121 11.5266C10.218 11.4426 10.2095 11.3236 10.2093 11.3039C10.2052 10.8357 10.2129 10.4773 10.2092 10.0002C10.2092 9.99992 10.2092 9.99968 10.2092 9.99944C10.2123 9.97362 10.188 9.78221 10.1696 9.69793C10.1689 9.69217 10.1545 9.6067 10.1198 9.53878C10.1174 9.5347 10.1349 9.5849 10.0984 9.49972C10.0614 9.41456 9.98132 9.28765 9.89799 9.19075C9.87225 9.16012 9.81145 9.08312 9.70919 9.01722C9.70368 9.01015 9.53927 8.9242 9.48086 8.89267C9.47118 8.8883 9.4878 8.87662 9.34844 8.83706C9.32166 8.83051 9.36922 8.84586 9.29883 8.82839C9.21512 8.80859 9.10803 8.7913 9 8.79316C8.96789 8.7936 8.9358 8.79428 8.90425 8.79533C8.87965 8.79616 8.77494 8.80332 8.69094 8.79788C8.67778 8.79703 8.70278 8.79351 8.65842 8.79312C8.44747 8.79123 8.22659 8.79358 8.01242 8.79115C7.93655 8.79029 7.97534 8.7846 7.89626 8.78307C7.81717 8.78155 7.65784 8.78008 7.57508 8.78268C7.49231 8.78528 7.58273 8.79436 7.45873 8.79508C7.30548 8.79598 7.15264 8.79619 7 8.79602C6.6289 8.79296 6.26223 8.97209 6.0373 9.2703C5.99209 9.33275 6.02976 9.28132 5.96871 9.37686C5.87427 9.52926 5.7939 9.75961 5.79603 10.0002C5.79619 10.3294 5.79549 10.665 5.79156 10.8796C5.78603 11.1811 5.78183 10.8016 5.77958 11.0321C5.77851 11.1433 5.78906 11.2636 5.78939 11.2904C5.79276 11.5527 5.78809 11.7349 5.78952 11.971C5.78982 12.0197 5.79409 11.9719 5.7943 12.0134C5.79504 12.1551 5.79313 12.304 5.79348 12.4394C5.79365 12.5002 5.79692 12.489 5.79666 12.5449C5.7961 12.6786 5.79472 12.7969 5.79166 12.9272C5.79139 12.9391 5.78732 12.859 5.78717 12.9579C5.78694 13.1181 5.78392 13.3169 5.78704 13.5011C5.78798 13.5558 5.79544 13.5579 5.79028 13.6755C5.78921 13.7001 5.78025 13.6687 5.78799 13.8055C5.78928 13.8286 5.79972 14.0585 5.79299 14.1714C5.79122 14.2011 5.78388 14.2771 5.78504 14.3429C5.78522 14.3518 5.78923 14.3161 5.78962 14.3705C5.79046 14.4944 5.79059 14.6221 5.7909 14.7502L5.79082 14.7911L5.75 14.7911C5.67961 14.7912 5.60914 14.7915 5.53916 14.7919C5.48649 14.7923 5.56494 14.7964 5.48644 14.7968C5.27056 14.7978 5.00104 14.7968 4.78994 14.7955C4.71211 14.795 4.76591 14.7915 4.76025 14.7912C4.66918 14.7851 4.61533 14.7933 4.58511 14.7938C4.39713 14.7966 4.25399 14.7928 4.08071 14.7938C4.03289 14.7941 4.0668 14.798 4.05728 14.7983C3.95856 14.8018 4.0321 14.7947 3.96961 14.794C3.79456 14.7918 3.59942 14.7921 3.42239 14.7926C3.35737 14.7928 3.43045 14.7973 3.37209 14.7974C3.24926 14.7977 3.12469 14.7978 3 14.7978C2.75875 14.7998 2.52272 14.6805 2.3809 14.499C2.34009 14.4455 2.36888 14.4769 2.36104 14.4653C2.30611 14.3863 2.24739 14.2578 2.23953 14.2259C2.20963 14.129 2.20628 14.0689 2.20587 14.0002C2.2061 13.9701 2.20628 13.938 2.2061 13.899C2.20323 13.2959 2.20528 12.5513 2.20654 11.982C2.20817 11.2402 2.21149 10.6645 2.21063 9.95713C2.21058 9.91217 2.20593 9.95751 2.20583 9.91875C2.20471 9.41836 2.20652 8.92574 2.20518 8.42435C2.20508 8.3832 2.20067 8.44251 2.20036 8.37647C2.19969 8.24102 2.19993 8.06943 2.20134 7.93247C2.20201 7.86567 2.2058 7.95527 2.2064 7.88803C2.20779 7.73516 2.20812 7.57155 2.20747 7.41422C2.20746 7.41019 2.20748 7.40617 2.20752 7.40217C2.20998 7.3298 2.20004 7.43895 2.20561 7.34462C2.22139 7.15887 2.3047 6.98089 2.43596 6.85018C2.73857 6.54752 3.0408 6.24643 3.35154 5.94155C3.38151 5.91215 3.41403 5.89259 3.4759 5.82823C3.47886 5.82168 3.47649 5.81983 3.47664 5.81583C4.09934 5.19106 4.71895 4.57594 5.34478 3.9508C5.37117 3.92444 5.32216 3.96659 5.37323 3.91554C5.66878 3.62008 5.95478 3.33218 6.26047 3.03332C6.29079 3.00367 6.28144 3.02509 6.36891 2.9358C6.38433 2.92004 6.51664 2.78612 6.54974 2.7504C6.55422 2.74553 6.52712 2.76699 6.56993 2.72402C6.81877 2.47432 7.08063 2.21375 7.33118 1.96664C7.37163 1.92676 7.33186 1.97253 7.36069 1.94415C7.38882 1.91646 7.41721 1.88836 7.44578 1.85999C7.63083 1.66929 7.93032 1.59008 8.17015 1.65135C8.35313 1.7061 8.28238 1.69601 8.36899 1.74458C8.38212 1.7503 8.47745 1.81595 8.47815 1.82467C8.48317 1.84209 8.43321 1.81749 8.44388 1.84012C8.4481 1.84253 8.55624 1.94199 8.48935 1.88614C8.48577 1.88093 8.40182 1.81621 8.37751 1.80611C8.36144 1.79792 8.38687 1.81817 8.35464 1.80102C8.32228 1.78457 8.28806 1.76254 8.23016 1.74458C8.17177 1.72967 8.19691 1.73557 8.07889 1.71827ZM10.9745 14.7682C10.8735 14.7641 10.8586 14.7791 10.9678 14.7755C10.9731 14.7753 10.9797 14.7684 10.9745 14.7682ZM12.2369 5.56838C12.3256 5.66644 12.3964 5.72349 12.3341 5.654C12.2718 5.58453 12.2099 5.53852 12.2369 5.56838ZM11.2651 4.60336C11.3705 4.71618 11.4027 4.71837 11.2828 4.6045C11.2758 4.59787 11.2589 4.59676 11.2651 4.60336ZM7.92431 1.65566C7.92568 1.65465 8.00863 1.65127 8.01064 1.65219C8.05513 1.6458 7.88823 1.65157 7.92431 1.65566ZM10.3004 3.64606C10.3324 3.68216 10.4329 3.77793 10.393 3.73307C10.361 3.69696 10.2605 3.6011 10.3004 3.64606ZM10.2479 10.2047C10.2481 10.2031 10.2483 10.1445 10.2471 10.1457C10.243 10.1496 10.2442 10.2312 10.2479 10.2047ZM8.66686 2.0129C8.90761 2.25478 9.04154 2.41348 8.78014 2.14929C8.7328 2.10145 8.88666 2.24791 8.8272 2.18622C8.71841 2.07335 8.63703 2.00754 8.5281 1.89027C8.50839 1.86903 8.65315 1.99908 8.6673 2.01331C8.66715 2.01317 8.667 2.01304 8.66686 2.0129ZM10.9163 14.7502C10.9143 14.75 10.8332 14.7499 10.8313 14.7501C10.7874 14.7548 10.9507 14.7552 10.9163 14.7502ZM7.75042 8.743C7.74594 8.74258 7.55779 8.74219 7.55165 8.74257C7.45349 8.75034 7.8339 8.75116 7.75042 8.743ZM13.7391 11.8014C13.7344 11.7129 13.7338 11.6071 13.7398 11.5366C13.7395 11.6245 13.7394 11.713 13.7391 11.8014ZM6.84673 9.31645C6.75793 9.336 6.648 9.38572 6.57528 9.44052C6.55244 9.45751 6.56213 9.44654 6.54653 9.45865C6.51627 9.48274 6.49145 9.50902 6.46548 9.53702C6.4569 9.54636 6.46399 9.5316 6.45507 9.54156C6.4065 9.59657 6.37056 9.65707 6.34097 9.72523C6.3035 9.81184 6.28397 9.90581 6.28323 10.0002C6.28088 10.2843 6.27965 10.5674 6.27823 10.8567C6.2776 10.9852 6.27379 11.1414 6.27546 11.2741C6.27565 11.2896 6.27934 11.2804 6.27964 11.2833C6.28429 11.3296 6.27685 11.3142 6.27586 11.3444C6.27196 11.4642 6.27162 11.5974 6.27305 11.7127C6.27366 11.7617 6.28098 11.7126 6.27687 11.762C6.27659 11.7654 6.27268 11.7529 6.27226 11.7664C6.27133 11.7969 6.27202 11.8548 6.27171 11.8784C6.2711 11.924 6.27114 11.9315 6.27109 11.9746C6.271 12.0335 6.26905 12.1036 6.26994 12.1668C6.27014 12.1803 6.27415 12.1625 6.27483 12.184C6.27551 12.2055 6.27517 12.2625 6.27423 12.2817C6.27328 12.3009 6.27013 12.2927 6.26941 12.2961C6.26331 12.3241 6.27176 12.39 6.27196 12.3985C6.27552 12.5531 6.27071 12.6857 6.27073 12.8308C6.27075 12.941 6.27234 13.0588 6.27212 13.1637C6.27184 13.2886 6.26967 13.3944 6.27004 13.5158C6.27008 13.5286 6.27479 13.5136 6.27485 13.5292C6.27539 13.6954 6.27488 13.8604 6.2717 14.0258C6.27137 14.0424 6.26723 14.0211 6.26666 14.0376C6.26326 14.1391 6.25508 14.2997 6.27311 14.36C6.27241 14.4288 6.27168 14.5122 6.26805 14.5737C6.26571 14.6134 6.2612 14.5749 6.26312 14.6236C6.26355 14.6346 6.2675 14.6203 6.26784 14.6368C6.26861 14.6734 6.26861 14.7119 6.26874 14.7502L6.25 14.7314C6.28411 14.7313 6.31804 14.7311 6.35039 14.7301C6.36435 14.7297 6.36054 14.7261 6.36449 14.7255C6.39773 14.7203 6.45307 14.7289 6.46513 14.7295C6.55699 14.7341 6.62407 14.7323 6.70964 14.7324C6.7295 14.7324 6.70603 14.7277 6.72513 14.7275C6.82424 14.7269 6.9269 14.7273 7.02394 14.7294C7.04552 14.7299 7.02567 14.7339 7.03599 14.7343C7.08147 14.7362 7.09155 14.7286 7.13517 14.7302C7.14436 14.7306 7.13918 14.734 7.14086 14.7344C7.16711 14.7404 7.18992 14.7319 7.19668 14.7317C7.28209 14.7292 7.33669 14.738 7.4192 14.7368C7.42908 14.7366 7.40682 14.7322 7.43456 14.732C7.61943 14.7308 7.81495 14.732 7.99794 14.7355C8.02639 14.7361 8.00608 14.7394 8.00787 14.7398C8.03705 14.7461 8.05593 14.7376 8.06521 14.7373C8.13839 14.735 8.20676 14.7421 8.25648 14.732C8.56644 14.7355 8.87496 14.7298 9.18235 14.7389C9.18626 14.739 9.17926 14.7432 9.18705 14.7434C9.28094 14.7457 9.26291 14.7392 9.32503 14.7313C9.34068 14.7293 9.38829 14.7389 9.3925 14.7396C9.40785 14.7422 9.39193 14.7484 9.39707 14.7489C9.43959 14.7529 9.43266 14.7323 9.49003 14.7323C9.49182 14.7323 9.48429 14.7361 9.4891 14.7365C9.50406 14.7376 9.51889 14.7361 9.53353 14.7374C9.56703 14.7405 9.57896 14.7505 9.63013 14.7447C9.6366 14.7439 9.62671 14.7322 9.67793 14.7328C9.68884 14.7329 9.71973 14.7329 9.75 14.733L9.73282 14.7502C9.7329 14.7238 9.73304 14.6979 9.73339 14.6861C9.73415 14.6608 9.73792 14.6782 9.73808 14.6764C9.74306 14.6082 9.74513 14.634 9.7525 14.5999C9.75985 14.5657 9.74233 14.5752 9.74037 14.5613C9.73842 14.5473 9.74253 14.4974 9.74396 14.4851C9.74539 14.4728 9.74778 14.4881 9.74859 14.4772C9.75388 14.4048 9.73989 14.4454 9.73711 14.4216C9.73052 14.3654 9.74352 14.3216 9.7448 14.2701C9.74514 14.2562 9.74218 14.2675 9.7419 14.2551C9.74085 14.206 9.7449 14.1765 9.74118 14.1206C9.74058 14.1115 9.73276 14.0663 9.7385 14.037C9.73932 14.0329 9.74256 14.0447 9.74329 14.0237C9.74438 13.9925 9.74508 13.9361 9.744 13.9025C9.7432 13.8777 9.73786 13.9061 9.73952 13.8749C9.74026 13.861 9.74338 13.8868 9.74451 13.8607C9.74564 13.8347 9.74551 13.7684 9.7454 13.7431C9.74529 13.718 9.74124 13.7317 9.74097 13.7297C9.73941 13.7174 9.73745 13.669 9.73746 13.6648C9.73696 13.4492 9.74379 13.2505 9.74153 13.0406C9.74136 13.0241 9.73709 13.0351 9.73702 13.0326C9.73523 12.9762 9.74658 13.0207 9.75038 12.9813C9.74172 12.987 9.74329 12.9637 9.74234 12.924C9.74187 12.9049 9.73852 12.9153 9.73817 12.9135C9.73308 12.8852 9.73966 12.8654 9.74101 12.8603C9.74596 12.8415 9.74011 12.8211 9.74342 12.8083C9.7467 12.7955 9.75157 12.8249 9.75151 12.7868C9.74841 12.7761 9.7403 12.8044 9.73899 12.7755C9.73402 12.6664 9.74038 12.4627 9.74104 12.375C9.7417 12.2875 9.74113 12.2592 9.74225 12.2082C9.74428 12.116 9.73826 12.1498 9.73551 12.0926C9.73276 12.0352 9.74755 12.0631 9.75073 12.0548C9.75391 12.0467 9.75064 12.0379 9.75239 12.0278C9.75414 12.0178 9.7563 12.0395 9.75695 12.0159C9.75761 11.9923 9.75195 11.9277 9.74863 11.9193C9.74158 11.9016 9.73419 11.9307 9.73679 11.8682C9.73694 11.8646 9.74083 11.8762 9.74122 11.8625C9.74422 11.7531 9.74441 11.6395 9.74705 11.5303C9.74742 11.5153 9.75175 11.5287 9.75202 11.52C9.75478 11.4289 9.74749 11.4615 9.73938 11.4116C9.75017 11.4228 9.75677 11.3952 9.75683 11.3261C9.75687 11.2846 9.75216 11.2917 9.74884 11.2649C9.74784 11.2568 9.75108 11.2274 9.74886 11.2221C9.74162 11.2045 9.73351 11.2322 9.73674 11.161C9.73689 11.1579 9.74086 11.1678 9.7411 11.157C9.74267 11.0872 9.73509 11.0789 9.73418 11.0034C9.73346 10.9443 9.73807 10.8391 9.73883 10.7717C9.75095 10.7732 9.74818 10.7096 9.73982 10.6838C9.74016 10.6401 9.73968 10.5928 9.74084 10.5506C9.74123 10.5361 9.74475 10.5456 9.74513 10.5438C9.75108 10.5157 9.74294 10.4967 9.74262 10.4872C9.73952 10.385 9.74569 10.3017 9.73966 10.2041C9.73945 10.2007 9.73102 10.1951 9.73717 10.169C9.7376 10.1673 9.74143 10.1995 9.74173 10.1536C9.74196 10.1174 9.74482 10.0558 9.7441 10.0002C9.74391 9.98531 9.74302 9.97108 9.74145 9.95785C9.7398 9.94244 9.72965 9.90513 9.72948 9.87393C9.72949 9.86974 9.73266 9.87378 9.73294 9.86766C9.73363 9.84783 9.72318 9.83926 9.72473 9.81556C9.7261 9.79188 9.71864 9.74291 9.68705 9.68585C9.68604 9.68402 9.67366 9.67298 9.66446 9.65508C9.64996 9.62634 9.62711 9.58655 9.60703 9.55942C9.59746 9.54644 9.60021 9.55727 9.59849 9.55506C9.53107 9.4713 9.47629 9.41515 9.37788 9.35353C9.35976 9.34201 9.3032 9.31923 9.26628 9.30102C9.22515 9.28187 9.27739 9.27378 9.17288 9.25113C9.12978 9.24353 9.07464 9.2598 9 9.24623C8.99985 9.2462 8.9997 9.24617 8.99955 9.24615C8.85325 9.2495 8.71795 9.24258 8.57124 9.24736C8.56465 9.24757 8.54378 9.25486 8.52827 9.25476C8.50525 9.2546 8.49261 9.25119 8.47617 9.25097C8.40727 9.24994 8.34423 9.25286 8.2778 9.2524C8.25259 9.25224 8.26141 9.24872 8.23133 9.24852C8.20127 9.24833 8.18122 9.25296 8.14049 9.25072C8.10972 9.24902 8.07896 9.23954 8.03813 9.23844C8.03657 9.24778 8.00852 9.24759 7.95868 9.25006C7.94909 9.25054 7.95937 9.25379 7.95484 9.25419C7.93639 9.25586 7.91932 9.25317 7.9018 9.25499C7.89754 9.25543 7.89734 9.25862 7.89386 9.25916C7.86424 9.26386 7.81544 9.25668 7.80706 9.25543C7.77494 9.25068 7.75992 9.25483 7.73529 9.25296C7.71069 9.2511 7.74747 9.24876 7.71874 9.24762C7.65918 9.24528 7.58265 9.24579 7.52216 9.24565C7.49803 9.24561 7.51449 9.24987 7.51104 9.24996C7.46113 9.25104 7.41066 9.24651 7.38299 9.255C7.34839 9.23305 7.35289 9.25713 7.28156 9.25273C7.27594 9.25238 7.26879 9.242 7.29036 9.24048C7.31193 9.23895 7.34465 9.2422 7.37458 9.23982C7.38167 9.23927 7.42227 9.22954 7.42781 9.22895C7.47121 9.22435 7.47736 9.23986 7.47965 9.24071C7.50569 9.2499 7.55531 9.23942 7.56837 9.2387C7.62815 9.23538 7.67894 9.23756 7.72893 9.2352C7.76163 9.23367 7.76483 9.22351 7.79051 9.22382C7.87586 9.22485 7.90565 9.23902 7.98609 9.22673C8.00333 9.22411 7.9862 9.21301 8.04799 9.22174C8.05188 9.22229 8.09776 9.23028 8.12427 9.22522C8.1276 9.22459 8.12749 9.22135 8.13188 9.22108C8.16131 9.21932 8.18093 9.2219 8.21299 9.22066C8.24504 9.21943 8.28358 9.21759 8.32018 9.21869C8.34223 9.21934 8.37053 9.22537 8.38109 9.22685C8.4109 9.2311 8.44287 9.22413 8.46134 9.22928C8.47996 9.23445 8.44355 9.24231 8.49239 9.24565C8.4942 9.23725 8.49835 9.22862 8.50126 9.22016C8.60829 9.22046 8.7136 9.22318 8.82098 9.22281C8.8343 9.22275 8.82068 9.21823 8.83495 9.21806C8.89186 9.21738 8.94196 9.22022 9 9.21945C9.00353 9.21941 9.00709 9.21937 9.01067 9.21935C9.06086 9.21891 9.11675 9.22017 9.16898 9.23045C9.19865 9.24602 9.2744 9.26497 9.32547 9.2904C9.34333 9.29906 9.34099 9.30089 9.35317 9.30796C9.39849 9.33555 9.3806 9.31668 9.39406 9.32262C9.45089 9.35075 9.44517 9.36933 9.50151 9.41504C9.50458 9.41717 9.54653 9.44181 9.5515 9.44641C9.58381 9.47351 9.55395 9.45374 9.57133 9.47325C9.60235 9.50951 9.62108 9.53663 9.65406 9.58171C9.66368 9.59475 9.68944 9.6255 9.69891 9.65638C9.70017 9.66042 9.69611 9.65984 9.69739 9.66293C9.71983 9.71901 9.72908 9.71697 9.74433 9.74879C9.75953 9.78091 9.76476 9.83565 9.76445 9.84671C9.76454 9.87572 9.75792 9.82575 9.7567 9.8244C9.74626 9.80829 9.75675 9.84576 9.76074 9.87513C9.75142 9.8811 9.75719 9.92136 9.76456 9.90556C9.76544 9.9037 9.76134 9.88112 9.76074 9.87513C9.77511 9.89891 9.78228 9.94584 9.77281 9.99631C9.77254 9.99775 9.77227 9.99902 9.77199 10.0002C9.76772 10.017 9.76321 10.0019 9.76501 10.0672C9.76587 10.0988 9.77307 10.0866 9.77503 10.1144C9.7795 10.178 9.77279 10.2607 9.77385 10.3263C9.77423 10.3501 9.77817 10.3269 9.77857 10.3432C9.77963 10.3863 9.77668 10.4244 9.77819 10.4678C9.77834 10.4717 9.78246 10.4621 9.78251 10.4756C9.78299 10.5778 9.78035 10.6668 9.78028 10.7735C9.78024 10.8251 9.78251 10.9173 9.78206 10.9707C9.78129 11.0633 9.7753 11.1772 9.77675 11.2563C9.77769 11.3078 9.78181 11.2965 9.78461 11.3186C9.79006 11.3613 9.78031 11.4368 9.7788 11.4469C9.77875 11.4473 9.77778 11.4029 9.77566 11.4266C9.77125 11.4403 9.77878 11.4464 9.7788 11.4469C9.77782 11.4536 9.77689 11.5423 9.77767 11.5599C9.77811 11.5695 9.78201 11.5641 9.78216 11.5691C9.78566 11.6877 9.78665 11.8064 9.78482 11.9267C9.78474 11.9288 9.78038 11.9256 9.78024 11.9306C9.7783 12.0002 9.78365 12.0448 9.78682 12.1022C9.78999 12.1596 9.78893 12.2052 9.78143 12.2391C9.78237 12.2825 9.77906 12.3446 9.77705 12.3804C9.77503 12.4161 9.78354 12.4211 9.78371 12.4243C9.78909 12.5224 9.78422 12.5791 9.78346 12.681C9.78309 12.7294 9.78432 12.8254 9.78525 12.8778C9.786 12.9192 9.78401 12.9442 9.78528 12.9823C9.78545 12.9875 9.78924 12.9823 9.78938 12.9839C9.79391 13.0265 9.78466 13.006 9.783 13.0148C9.77699 13.0467 9.77379 13.0664 9.77662 13.1209C9.77727 13.1335 9.79059 13.1701 9.79137 13.1931C9.79236 13.2229 9.78758 13.2116 9.78874 13.2429C9.78884 13.2455 9.79178 13.245 9.79165 13.2643C9.79109 13.3537 9.78937 13.4512 9.78967 13.5442C9.7897 13.5569 9.79437 13.5406 9.79449 13.559C9.79504 13.645 9.79487 13.7394 9.79268 13.8233C9.79213 13.8439 9.78886 13.831 9.78789 13.8354C9.78201 13.863 9.79055 13.902 9.79071 13.9084C9.79482 14.062 9.78709 14.1795 9.79077 14.336C9.79098 14.3445 9.80014 14.4101 9.79229 14.4393C9.79176 14.4413 9.78373 14.4703 9.78922 14.4959C9.78957 14.4975 9.7937 14.4794 9.79328 14.5109C9.79286 14.5424 9.79562 14.593 9.79108 14.6363C9.78965 14.65 9.78163 14.6824 9.78802 14.7232C9.7882 14.7243 9.79075 14.7356 9.793 14.7502L9.79275 14.7934L9.75 14.7932C9.72923 14.7964 9.70191 14.799 9.68865 14.7931C9.685 14.7915 9.68883 14.7809 9.64006 14.7863C9.63074 14.7874 9.64765 14.7897 9.62311 14.7912C9.5855 14.7935 9.53567 14.7906 9.48943 14.7953C9.48137 14.7962 9.44705 14.8033 9.41951 14.7979C9.4152 14.797 9.4234 14.7935 9.40885 14.7931C9.33971 14.7912 9.26732 14.7936 9.19712 14.7911C9.17225 14.7903 9.18497 14.7846 9.15905 14.7831C9.13312 14.7815 9.0809 14.7801 9.05378 14.7827C9.02664 14.7853 9.05628 14.7944 9.01564 14.7951C8.83895 14.7982 8.66392 14.7929 8.48749 14.7921C8.46132 14.792 8.48301 14.7953 8.44445 14.7953C8.30228 14.7956 8.05682 14.7986 7.93345 14.7917C7.8346 14.7862 7.959 14.782 7.88346 14.7797C7.84701 14.7787 7.80758 14.7892 7.79878 14.7895C7.71282 14.7929 7.65309 14.7882 7.57572 14.7897C7.55975 14.79 7.57542 14.7942 7.56182 14.7945C7.51538 14.7952 7.46656 14.7933 7.42218 14.7936C7.40227 14.7938 7.40594 14.7971 7.38762 14.7968C7.34379 14.7963 7.30502 14.7949 7.26229 14.7918C7.25839 14.7915 7.28466 14.7875 7.25222 14.7873C7.19973 14.7871 7.13458 14.7841 7.07419 14.7872C7.05627 14.7881 7.05557 14.7956 7.01705 14.7904C7.00897 14.7894 7.01928 14.7804 6.97441 14.7881C6.96687 14.7894 6.8915 14.7999 6.85451 14.7931C6.84475 14.7914 6.81984 14.784 6.79829 14.7852C6.79537 14.7854 6.80708 14.7894 6.78922 14.7898C6.7263 14.7911 6.66034 14.7907 6.5957 14.7919C6.57843 14.7923 6.60414 14.7964 6.57841 14.7968C6.50766 14.7978 6.41932 14.7968 6.35013 14.7955C6.32462 14.795 6.34225 14.7915 6.34039 14.7912C6.31054 14.7851 6.2929 14.7933 6.28299 14.7938C6.27154 14.7943 6.26059 14.7946 6.25 14.7948L6.20514 14.7945L6.20539 14.7502C6.20477 14.7037 6.20717 14.6641 6.20634 14.6178C6.20607 14.6021 6.20215 14.6133 6.20181 14.6101C6.19839 14.5778 6.20542 14.6019 6.2062 14.5814C6.20839 14.524 6.20808 14.4601 6.20758 14.402C6.20739 14.3807 6.20285 14.4047 6.20273 14.3856C6.20195 14.2723 6.20238 14.1547 6.20489 14.0442C6.20537 14.0234 6.20886 14.0365 6.20966 14.0321C6.21525 14.0022 6.20763 13.9585 6.2069 13.9484C6.20359 13.9026 6.20668 13.8848 6.2061 13.8443C6.20323 13.6466 6.20528 13.4026 6.20654 13.216C6.20817 12.9728 6.21149 12.7842 6.21063 12.5523C6.21058 12.5376 6.20593 12.5524 6.20583 12.5397C6.20471 12.3757 6.20652 12.2142 6.20518 12.0499C6.20508 12.0364 6.20067 12.0559 6.20036 12.0342C6.19969 11.9898 6.19993 11.9336 6.20134 11.8887C6.20201 11.8668 6.2058 11.8962 6.2064 11.8741C6.20782 11.8228 6.20813 11.7678 6.20743 11.7151C6.20712 11.6926 6.20261 11.7265 6.20256 11.6973C6.20211 11.4987 6.20133 11.3037 6.20717 11.103C6.20757 11.0892 6.21673 11.0771 6.21498 11.0479C6.21243 11.0457 6.20944 11.0458 6.20672 11.0448C6.20526 10.7557 6.20844 10.4696 6.20893 10.1796C6.20895 10.1674 6.20409 10.1885 6.20411 10.1649C6.20414 10.1096 6.20393 10.0549 6.204 10.0002C6.2041 9.91438 6.21838 9.82822 6.2495 9.74543C6.25491 9.73176 6.25971 9.7414 6.27437 9.70116C6.27643 9.69383 6.30282 9.63483 6.31 9.61959C6.31089 9.61746 6.30154 9.62589 6.31176 9.60752C6.37145 9.50098 6.46228 9.40565 6.5652 9.34108C6.58181 9.33072 6.56666 9.34562 6.57851 9.33836C6.66215 9.28694 6.76262 9.24469 6.85583 9.23178C6.91808 9.22404 6.89628 9.23537 6.92949 9.23888C6.9341 9.23923 6.97209 9.23712 6.9741 9.24148C6.97931 9.25186 6.96199 9.26411 6.96972 9.27507C6.97126 9.27711 7.01954 9.27411 6.991 9.28019C6.98895 9.28042 6.95441 9.2836 6.94607 9.28646C6.9403 9.28828 6.95117 9.29171 6.93939 9.29442C6.92776 9.2972 6.91412 9.29493 6.89486 9.29986C6.87564 9.30514 6.88487 9.30786 6.84673 9.31645ZM9.76806 12.5414C9.76397 12.5745 9.77893 12.5794 9.77535 12.5436C9.77516 12.5418 9.76826 12.5397 9.76806 12.5414ZM8.713 9.23446C8.75629 9.24105 8.78591 9.23136 8.75537 9.22626C8.72484 9.22117 8.69981 9.23246 8.713 9.23446ZM8.2641 9.23927C8.31469 9.24448 8.32266 9.22327 8.26847 9.22756C8.26532 9.2278 8.26114 9.23897 8.2641 9.23927ZM6.78192 9.26937C6.78238 9.26932 6.80867 9.26222 6.8093 9.26197C6.82219 9.25349 6.76923 9.2677 6.78192 9.26937ZM7.81864 9.24452C7.83444 9.24739 7.87991 9.24407 7.86029 9.24051C7.84449 9.23764 7.79897 9.24095 7.81864 9.24452ZM9.7521 14.2687C9.75187 14.2692 9.75167 14.2884 9.75293 14.288C9.75699 14.2867 9.75584 14.26 9.7521 14.2687ZM7.06154 9.24476C7.1734 9.24556 7.24122 9.26308 7.11941 9.2611C7.09735 9.26074 7.16695 9.25551 7.13888 9.25394C7.0875 9.25106 7.05339 9.26206 7.00096 9.25616C6.99147 9.25508 7.05516 9.24468 7.06174 9.24474C7.06168 9.24475 7.06161 9.24475 7.06154 9.24476ZM9.75009 12.5605C9.7499 12.5611 9.74971 12.5877 9.7499 12.5883C9.75465 12.6027 9.75503 12.5492 9.75009 12.5605ZM9.11124 14.743C9.10978 14.7426 9.04811 14.7422 9.0461 14.7426C9.01392 14.7503 9.13861 14.7512 9.11124 14.743ZM9.73915 10.7707C9.73437 10.7417 9.73381 10.707 9.73981 10.6839C9.73949 10.7127 9.73944 10.7417 9.73915 10.7707Z" fill="#787486"/>
</svg>
