<svg width="40" height="40" viewBox="0 0 40 40" fill="none" xmlns="http://www.w3.org/2000/svg">
<path d="M14.1668 31.6666H13.3335C6.66683 31.6666 3.3335 29.9999 3.3335 21.6666V13.3333C3.3335 6.66659 6.66683 3.33325 13.3335 3.33325H26.6668C33.3335 3.33325 36.6668 6.66659 36.6668 13.3333V21.6666C36.6668 28.3333 33.3335 31.6666 26.6668 31.6666H25.8335C25.3168 31.6666 24.8168 31.9166 24.5002 32.3333L22.0002 35.6666C20.9002 37.1333 19.1002 37.1333 18.0002 35.6666L15.5002 32.3333C15.2335 31.9666 14.6168 31.6666 14.1668 31.6666Z" stroke="#787486" stroke-width="1.5" stroke-miterlimit="10" stroke-linecap="round" stroke-linejoin="round"/>
<path d="M26.6606 18.3333H26.6756" stroke="#787486" stroke-width="2" stroke-linecap="round" stroke-linejoin="round"/>
<path d="M19.9926 18.3333H20.0076" stroke="#787486" stroke-width="2" stroke-linecap="round" stroke-linejoin="round"/>
<path d="M13.3242 18.3333H13.3391" stroke="#787486" stroke-width="2" stroke-linecap="round" stroke-linejoin="round"/>
</svg>
