<svg width="40" height="40" viewBox="0 0 40 40" fill="none" xmlns="http://www.w3.org/2000/svg">
<path d="M15.2668 18.1166C15.1001 18.0999 14.9001 18.0999 14.7168 18.1166C10.7501 17.9833 7.6001 14.7333 7.6001 10.7333C7.6001 6.64992 10.9001 3.33325 15.0001 3.33325C19.0834 3.33325 22.4001 6.64992 22.4001 10.7333C22.3834 14.7333 19.2334 17.9833 15.2668 18.1166Z" stroke="#787486" stroke-width="1.5" stroke-linecap="round" stroke-linejoin="round"/>
<path d="M27.35 6.66675C30.5833 6.66675 33.1833 9.28342 33.1833 12.5001C33.1833 15.6501 30.6833 18.2167 27.5666 18.3334C27.4333 18.3167 27.2833 18.3167 27.1333 18.3334" stroke="#787486" stroke-width="1.5" stroke-linecap="round" stroke-linejoin="round"/>
<path d="M6.9332 24.2667C2.89987 26.9667 2.89987 31.3667 6.9332 34.0501C11.5165 37.1167 19.0332 37.1167 23.6165 34.0501C27.6499 31.3501 27.6499 26.9501 23.6165 24.2667C19.0499 21.2167 11.5332 21.2167 6.9332 24.2667Z" stroke="#787486" stroke-width="1.5" stroke-linecap="round" stroke-linejoin="round"/>
<path d="M30.5669 33.3333C31.7669 33.0833 32.9002 32.5999 33.8336 31.8832C36.4336 29.9332 36.4336 26.7166 33.8336 24.7666C32.9169 24.0666 31.8002 23.5999 30.6169 23.3333" stroke="#787486" stroke-width="1.5" stroke-linecap="round" stroke-linejoin="round"/>
</svg>
